  0
SECTION
  2
HEADER
  9
$ANGBASE
  50
0.0
  9
$ANGDIR
  70
1
  9
$MEASUREMENT
  70
1
  0
ENDSEC
  0
SECTION
  2
TABLES
  0
TABLE
  2
LTYPE
  70
4
  0
LTYPE
  5
40F
  2
CONTINUOUS
  70
0
  3
Solid line
  72
65
  73
0
  40
0.0
  0
LTYPE
  5
410
  2
DASHDOT
 70
0
  3
Dash Dot ____ _ ____ _
 72
65
 73
4
 40
2.0
 49
1.25
 49
-0.25
 49
0.25
 49
-0.25
  0
LTYPE
  5
411
  2
DASHED
 70
0
  3
Dashed __ __ __ __ __
 72
65
 73
2
 40
0.75
 49
0.5
 49
-0.25
  0
LTYPE
  5
43B
  2
DOTTED
 70
0
  3
Dotted .  .  .  .
 72
65
 73
2
 40
0.2
 49
0.0
 49
-0.2
  0
ENDTAB
  0
TABLE
  2
STYLE
  70
4
  0
STYLE
  2
KICAD
  70
0
  40
0
  41
1
  42
1
  50
0
  71
0
  3
isocp.shx
  0
STYLE
  2
KICADB
  70
0
  40
0
  41
1
  42
1
  50
0
  71
0
  3
isocp.shx
  0
STYLE
  2
KICADI
  70
0
  40
0
  41
1
  42
1
  50
15
  71
0
  3
isocp.shx
  0
STYLE
  2
KICADBI
  70
0
  40
0
  41
1
  42
1
  50
15
  71
0
  3
isocp.shx
  0
ENDTAB
  0
TABLE
  2
LAYER
  70
1
  0
LAYER
  2
BLACK
  70
0
  62
7
  6
CONTINUOUS
  0
ENDTAB
  0
ENDSEC
  0
SECTION
  2
ENTITIES
0
LINE
8
BLACK
6
CONTINUOUS
10
146.166
20
-103.632
11
146.161
21
-103.681
0
LINE
8
BLACK
6
CONTINUOUS
10
146.161
20
-103.681
11
146.147
21
-103.828
0
LINE
8
BLACK
6
CONTINUOUS
10
146.147
20
-103.828
11
146.089
21
-104.017
0
LINE
8
BLACK
6
CONTINUOUS
10
146.089
20
-104.017
11
145.996
21
-104.19
0
LINE
8
BLACK
6
CONTINUOUS
10
145.996
20
-104.19
11
145.872
21
-104.343
0
LINE
8
BLACK
6
CONTINUOUS
10
145.872
20
-104.343
11
145.833
21
-104.374
0
LINE
8
BLACK
6
CONTINUOUS
10
145.833
20
-104.374
11
144.69
21
-105.517
0
LINE
8
BLACK
6
CONTINUOUS
10
144.69
20
-105.517
11
144.576
21
-105.61
0
LINE
8
BLACK
6
CONTINUOUS
10
144.576
20
-105.61
11
144.403
21
-105.703
0
LINE
8
BLACK
6
CONTINUOUS
10
144.403
20
-105.703
11
144.214
21
-105.761
0
LINE
8
BLACK
6
CONTINUOUS
10
144.214
20
-105.761
11
144.018
21
-105.78
0
LINE
8
BLACK
6
CONTINUOUS
10
144.018
20
-105.78
11
143.822
21
-105.761
0
LINE
8
BLACK
6
CONTINUOUS
10
143.822
20
-105.761
11
143.633
21
-105.703
0
LINE
8
BLACK
6
CONTINUOUS
10
143.633
20
-105.703
11
143.46
21
-105.61
0
LINE
8
BLACK
6
CONTINUOUS
10
143.46
20
-105.61
11
143.307
21
-105.486
0
LINE
8
BLACK
6
CONTINUOUS
10
143.307
20
-105.486
11
143.183
21
-105.333
0
LINE
8
BLACK
6
CONTINUOUS
10
143.183
20
-105.333
11
143.09
21
-105.16
0
LINE
8
BLACK
6
CONTINUOUS
10
143.09
20
-105.16
11
143.032
21
-104.971
0
LINE
8
BLACK
6
CONTINUOUS
10
143.032
20
-104.971
11
143.013
21
-104.775
0
LINE
8
BLACK
6
CONTINUOUS
10
143.013
20
-104.775
11
143.032
21
-104.579
0
LINE
8
BLACK
6
CONTINUOUS
10
143.032
20
-104.579
11
143.09
21
-104.39
0
LINE
8
BLACK
6
CONTINUOUS
10
143.09
20
-104.39
11
143.183
21
-104.217
0
LINE
8
BLACK
6
CONTINUOUS
10
143.183
20
-104.217
11
143.276
21
-104.103
0
LINE
8
BLACK
6
CONTINUOUS
10
143.276
20
-104.103
11
144.161
21
-103.218
0
LINE
8
BLACK
6
CONTINUOUS
10
144.161
20
-103.218
11
144.161
21
-98.2489
0
LINE
8
BLACK
6
CONTINUOUS
10
144.161
20
-98.2489
11
144.161
21
-98.1995
0
LINE
8
BLACK
6
CONTINUOUS
10
144.161
20
-98.1995
11
144.171
21
-98.1511
0
LINE
8
BLACK
6
CONTINUOUS
10
144.171
20
-98.1511
11
144.175
21
-98.102
0
LINE
8
BLACK
6
CONTINUOUS
10
144.175
20
-98.102
11
144.19
21
-98.0547
0
LINE
8
BLACK
6
CONTINUOUS
10
144.19
20
-98.0547
11
144.199
21
-98.0063
0
LINE
8
BLACK
6
CONTINUOUS
10
144.199
20
-98.0063
11
144.218
21
-97.9607
0
LINE
8
BLACK
6
CONTINUOUS
10
144.218
20
-97.9607
11
144.233
21
-97.9135
0
LINE
8
BLACK
6
CONTINUOUS
10
144.233
20
-97.9135
11
144.256
21
-97.8699
0
LINE
8
BLACK
6
CONTINUOUS
10
144.256
20
-97.8699
11
144.275
21
-97.8243
0
LINE
8
BLACK
6
CONTINUOUS
10
144.275
20
-97.8243
11
144.302
21
-97.7833
0
LINE
8
BLACK
6
CONTINUOUS
10
144.302
20
-97.7833
11
144.326
21
-97.7397
0
LINE
8
BLACK
6
CONTINUOUS
10
144.326
20
-97.7397
11
144.357
21
-97.7016
0
LINE
8
BLACK
6
CONTINUOUS
10
144.357
20
-97.7016
11
144.384
21
-97.6605
0
LINE
8
BLACK
6
CONTINUOUS
10
144.384
20
-97.6605
11
144.419
21
-97.6256
0
LINE
8
BLACK
6
CONTINUOUS
10
144.419
20
-97.6256
11
144.45
21
-97.5875
0
LINE
8
BLACK
6
CONTINUOUS
10
144.45
20
-97.5875
11
144.489
21
-97.5562
0
LINE
8
BLACK
6
CONTINUOUS
10
144.489
20
-97.5562
11
144.524
21
-97.5212
0
LINE
8
BLACK
6
CONTINUOUS
10
144.524
20
-97.5212
11
144.565
21
-97.4938
0
LINE
8
BLACK
6
CONTINUOUS
10
144.565
20
-97.4938
11
144.603
21
-97.4625
0
LINE
8
BLACK
6
CONTINUOUS
10
144.603
20
-97.4625
11
144.646
21
-97.4392
0
LINE
8
BLACK
6
CONTINUOUS
10
144.646
20
-97.4392
11
144.687
21
-97.4118
0
LINE
8
BLACK
6
CONTINUOUS
10
144.687
20
-97.4118
11
144.733
21
-97.3929
0
LINE
8
BLACK
6
CONTINUOUS
10
144.733
20
-97.3929
11
144.776
21
-97.3697
0
LINE
8
BLACK
6
CONTINUOUS
10
144.776
20
-97.3697
11
144.824
21
-97.3553
0
LINE
8
BLACK
6
CONTINUOUS
10
144.824
20
-97.3553
11
144.869
21
-97.3364
0
LINE
8
BLACK
6
CONTINUOUS
10
144.869
20
-97.3364
11
144.918
21
-97.3268
0
LINE
8
BLACK
6
CONTINUOUS
10
144.918
20
-97.3268
11
144.965
21
-97.3125
0
LINE
8
BLACK
6
CONTINUOUS
10
144.965
20
-97.3125
11
145.014
21
-97.3076
0
LINE
8
BLACK
6
CONTINUOUS
10
145.014
20
-97.3076
11
145.063
21
-97.298
0
LINE
8
BLACK
6
CONTINUOUS
10
145.063
20
-97.298
11
145.112
21
-97.298
0
LINE
8
BLACK
6
CONTINUOUS
10
145.112
20
-97.298
11
145.161
21
-97.2932
0
LINE
8
BLACK
6
CONTINUOUS
10
145.161
20
-97.2932
11
145.21
21
-97.298
0
LINE
8
BLACK
6
CONTINUOUS
10
145.21
20
-97.298
11
145.259
21
-97.298
0
LINE
8
BLACK
6
CONTINUOUS
10
145.259
20
-97.298
11
145.308
21
-97.3076
0
LINE
8
BLACK
6
CONTINUOUS
10
145.308
20
-97.3076
11
145.357
21
-97.3125
0
LINE
8
BLACK
6
CONTINUOUS
10
145.357
20
-97.3125
11
145.404
21
-97.3268
0
LINE
8
BLACK
6
CONTINUOUS
10
145.404
20
-97.3268
11
145.453
21
-97.3364
0
LINE
8
BLACK
6
CONTINUOUS
10
145.453
20
-97.3364
11
145.498
21
-97.3553
0
LINE
8
BLACK
6
CONTINUOUS
10
145.498
20
-97.3553
11
145.546
21
-97.3697
0
LINE
8
BLACK
6
CONTINUOUS
10
145.546
20
-97.3697
11
145.589
21
-97.3929
0
LINE
8
BLACK
6
CONTINUOUS
10
145.589
20
-97.3929
11
145.635
21
-97.4118
0
LINE
8
BLACK
6
CONTINUOUS
10
145.635
20
-97.4118
11
145.676
21
-97.4392
0
LINE
8
BLACK
6
CONTINUOUS
10
145.676
20
-97.4392
11
145.719
21
-97.4625
0
LINE
8
BLACK
6
CONTINUOUS
10
145.719
20
-97.4625
11
145.757
21
-97.4938
0
LINE
8
BLACK
6
CONTINUOUS
10
145.757
20
-97.4938
11
145.798
21
-97.5212
0
LINE
8
BLACK
6
CONTINUOUS
10
145.798
20
-97.5212
11
145.833
21
-97.5562
0
LINE
8
BLACK
6
CONTINUOUS
10
145.833
20
-97.5562
11
145.872
21
-97.5875
0
LINE
8
BLACK
6
CONTINUOUS
10
145.872
20
-97.5875
11
145.903
21
-97.6256
0
LINE
8
BLACK
6
CONTINUOUS
10
145.903
20
-97.6256
11
145.938
21
-97.6605
0
LINE
8
BLACK
6
CONTINUOUS
10
145.938
20
-97.6605
11
145.965
21
-97.7016
0
LINE
8
BLACK
6
CONTINUOUS
10
145.965
20
-97.7016
11
145.996
21
-97.7397
0
LINE
8
BLACK
6
CONTINUOUS
10
145.996
20
-97.7397
11
146.02
21
-97.7833
0
LINE
8
BLACK
6
CONTINUOUS
10
146.02
20
-97.7833
11
146.047
21
-97.8243
0
LINE
8
BLACK
6
CONTINUOUS
10
146.047
20
-97.8243
11
146.066
21
-97.8699
0
LINE
8
BLACK
6
CONTINUOUS
10
146.066
20
-97.8699
11
146.089
21
-97.9135
0
LINE
8
BLACK
6
CONTINUOUS
10
146.089
20
-97.9135
11
146.104
21
-97.9607
0
LINE
8
BLACK
6
CONTINUOUS
10
146.104
20
-97.9607
11
146.123
21
-98.0063
0
LINE
8
BLACK
6
CONTINUOUS
10
146.123
20
-98.0063
11
146.132
21
-98.0547
0
LINE
8
BLACK
6
CONTINUOUS
10
146.132
20
-98.0547
11
146.147
21
-98.102
0
LINE
8
BLACK
6
CONTINUOUS
10
146.147
20
-98.102
11
146.151
21
-98.1511
0
LINE
8
BLACK
6
CONTINUOUS
10
146.151
20
-98.1511
11
146.161
21
-98.1995
0
LINE
8
BLACK
6
CONTINUOUS
10
146.161
20
-98.1995
11
146.161
21
-103.583
0
LINE
8
BLACK
6
CONTINUOUS
10
146.161
20
-103.583
11
146.166
21
-103.632
0
LINE
8
BLACK
6
CONTINUOUS
10
142.22
20
-104.103
11
142.313
21
-104.217
0
LINE
8
BLACK
6
CONTINUOUS
10
142.313
20
-104.217
11
142.406
21
-104.39
0
LINE
8
BLACK
6
CONTINUOUS
10
142.406
20
-104.39
11
142.464
21
-104.579
0
LINE
8
BLACK
6
CONTINUOUS
10
142.464
20
-104.579
11
142.483
21
-104.775
0
LINE
8
BLACK
6
CONTINUOUS
10
142.483
20
-104.775
11
142.464
21
-104.971
0
LINE
8
BLACK
6
CONTINUOUS
10
142.464
20
-104.971
11
142.406
21
-105.16
0
LINE
8
BLACK
6
CONTINUOUS
10
142.406
20
-105.16
11
142.313
21
-105.333
0
LINE
8
BLACK
6
CONTINUOUS
10
142.313
20
-105.333
11
142.189
21
-105.486
0
LINE
8
BLACK
6
CONTINUOUS
10
142.189
20
-105.486
11
142.036
21
-105.61
0
LINE
8
BLACK
6
CONTINUOUS
10
142.036
20
-105.61
11
141.863
21
-105.703
0
LINE
8
BLACK
6
CONTINUOUS
10
141.863
20
-105.703
11
141.674
21
-105.761
0
LINE
8
BLACK
6
CONTINUOUS
10
141.674
20
-105.761
11
141.478
21
-105.78
0
LINE
8
BLACK
6
CONTINUOUS
10
141.478
20
-105.78
11
141.282
21
-105.761
0
LINE
8
BLACK
6
CONTINUOUS
10
141.282
20
-105.761
11
141.093
21
-105.703
0
LINE
8
BLACK
6
CONTINUOUS
10
141.093
20
-105.703
11
140.92
21
-105.61
0
LINE
8
BLACK
6
CONTINUOUS
10
140.92
20
-105.61
11
140.806
21
-105.517
0
LINE
8
BLACK
6
CONTINUOUS
10
140.806
20
-105.517
11
139.409
21
-104.12
0
LINE
8
BLACK
6
CONTINUOUS
10
139.409
20
-104.12
11
139.37
21
-104.089
0
LINE
8
BLACK
6
CONTINUOUS
10
139.37
20
-104.089
11
139.246
21
-103.936
0
LINE
8
BLACK
6
CONTINUOUS
10
139.246
20
-103.936
11
139.196
21
-103.843
0
LINE
8
BLACK
6
CONTINUOUS
10
139.196
20
-103.843
11
139.153
21
-103.763
0
LINE
8
BLACK
6
CONTINUOUS
10
139.153
20
-103.763
11
139.095
21
-103.574
0
LINE
8
BLACK
6
CONTINUOUS
10
139.095
20
-103.574
11
139.076
21
-103.378
0
LINE
8
BLACK
6
CONTINUOUS
10
139.076
20
-103.378
11
139.081
21
-103.329
0
LINE
8
BLACK
6
CONTINUOUS
10
139.081
20
-103.329
11
139.081
21
-100.555
0
LINE
8
BLACK
6
CONTINUOUS
10
139.081
20
-100.555
11
139.081
21
-100.555
0
LINE
8
BLACK
6
CONTINUOUS
10
139.081
20
-100.555
11
139.081
21
-100.359
0
LINE
8
BLACK
6
CONTINUOUS
10
139.081
20
-100.359
11
139.081
21
-100.359
0
LINE
8
BLACK
6
CONTINUOUS
10
139.081
20
-100.359
11
139.081
21
-96.0899
0
LINE
8
BLACK
6
CONTINUOUS
10
139.081
20
-96.0899
11
139.081
21
-96.0405
0
LINE
8
BLACK
6
CONTINUOUS
10
139.081
20
-96.0405
11
139.091
21
-95.9921
0
LINE
8
BLACK
6
CONTINUOUS
10
139.091
20
-95.9921
11
139.095
21
-95.943
0
LINE
8
BLACK
6
CONTINUOUS
10
139.095
20
-95.943
11
139.11
21
-95.8957
0
LINE
8
BLACK
6
CONTINUOUS
10
139.11
20
-95.8957
11
139.119
21
-95.8473
0
LINE
8
BLACK
6
CONTINUOUS
10
139.119
20
-95.8473
11
139.138
21
-95.8017
0
LINE
8
BLACK
6
CONTINUOUS
10
139.138
20
-95.8017
11
139.153
21
-95.7545
0
LINE
8
BLACK
6
CONTINUOUS
10
139.153
20
-95.7545
11
139.176
21
-95.7109
0
LINE
8
BLACK
6
CONTINUOUS
10
139.176
20
-95.7109
11
139.195
21
-95.6653
0
LINE
8
BLACK
6
CONTINUOUS
10
139.195
20
-95.6653
11
139.222
21
-95.6243
0
LINE
8
BLACK
6
CONTINUOUS
10
139.222
20
-95.6243
11
139.246
21
-95.5807
0
LINE
8
BLACK
6
CONTINUOUS
10
139.246
20
-95.5807
11
139.277
21
-95.5426
0
LINE
8
BLACK
6
CONTINUOUS
10
139.277
20
-95.5426
11
139.304
21
-95.5015
0
LINE
8
BLACK
6
CONTINUOUS
10
139.304
20
-95.5015
11
139.339
21
-95.4666
0
LINE
8
BLACK
6
CONTINUOUS
10
139.339
20
-95.4666
11
139.37
21
-95.4285
0
LINE
8
BLACK
6
CONTINUOUS
10
139.37
20
-95.4285
11
139.409
21
-95.3972
0
LINE
8
BLACK
6
CONTINUOUS
10
139.409
20
-95.3972
11
139.444
21
-95.3622
0
LINE
8
BLACK
6
CONTINUOUS
10
139.444
20
-95.3622
11
139.485
21
-95.3348
0
LINE
8
BLACK
6
CONTINUOUS
10
139.485
20
-95.3348
11
139.523
21
-95.3035
0
LINE
8
BLACK
6
CONTINUOUS
10
139.523
20
-95.3035
11
139.566
21
-95.2802
0
LINE
8
BLACK
6
CONTINUOUS
10
139.566
20
-95.2802
11
139.607
21
-95.2528
0
LINE
8
BLACK
6
CONTINUOUS
10
139.607
20
-95.2528
11
139.653
21
-95.2339
0
LINE
8
BLACK
6
CONTINUOUS
10
139.653
20
-95.2339
11
139.696
21
-95.2107
0
LINE
8
BLACK
6
CONTINUOUS
10
139.696
20
-95.2107
11
139.744
21
-95.1963
0
LINE
8
BLACK
6
CONTINUOUS
10
139.744
20
-95.1963
11
139.789
21
-95.1774
0
LINE
8
BLACK
6
CONTINUOUS
10
139.789
20
-95.1774
11
139.838
21
-95.1678
0
LINE
8
BLACK
6
CONTINUOUS
10
139.838
20
-95.1678
11
139.885
21
-95.1535
0
LINE
8
BLACK
6
CONTINUOUS
10
139.885
20
-95.1535
11
139.934
21
-95.1486
0
LINE
8
BLACK
6
CONTINUOUS
10
139.934
20
-95.1486
11
139.983
21
-95.139
0
LINE
8
BLACK
6
CONTINUOUS
10
139.983
20
-95.139
11
140.032
21
-95.139
0
LINE
8
BLACK
6
CONTINUOUS
10
140.032
20
-95.139
11
140.081
21
-95.1342
0
LINE
8
BLACK
6
CONTINUOUS
10
140.081
20
-95.1342
11
140.13
21
-95.139
0
LINE
8
BLACK
6
CONTINUOUS
10
140.13
20
-95.139
11
140.179
21
-95.139
0
LINE
8
BLACK
6
CONTINUOUS
10
140.179
20
-95.139
11
140.228
21
-95.1486
0
LINE
8
BLACK
6
CONTINUOUS
10
140.228
20
-95.1486
11
140.277
21
-95.1535
0
LINE
8
BLACK
6
CONTINUOUS
10
140.277
20
-95.1535
11
140.324
21
-95.1678
0
LINE
8
BLACK
6
CONTINUOUS
10
140.324
20
-95.1678
11
140.373
21
-95.1774
0
LINE
8
BLACK
6
CONTINUOUS
10
140.373
20
-95.1774
11
140.418
21
-95.1963
0
LINE
8
BLACK
6
CONTINUOUS
10
140.418
20
-95.1963
11
140.466
21
-95.2107
0
LINE
8
BLACK
6
CONTINUOUS
10
140.466
20
-95.2107
11
140.509
21
-95.2339
0
LINE
8
BLACK
6
CONTINUOUS
10
140.509
20
-95.2339
11
140.555
21
-95.2528
0
LINE
8
BLACK
6
CONTINUOUS
10
140.555
20
-95.2528
11
140.596
21
-95.2802
0
LINE
8
BLACK
6
CONTINUOUS
10
140.596
20
-95.2802
11
140.639
21
-95.3035
0
LINE
8
BLACK
6
CONTINUOUS
10
140.639
20
-95.3035
11
140.677
21
-95.3348
0
LINE
8
BLACK
6
CONTINUOUS
10
140.677
20
-95.3348
11
140.718
21
-95.3622
0
LINE
8
BLACK
6
CONTINUOUS
10
140.718
20
-95.3622
11
140.753
21
-95.3972
0
LINE
8
BLACK
6
CONTINUOUS
10
140.753
20
-95.3972
11
140.792
21
-95.4285
0
LINE
8
BLACK
6
CONTINUOUS
10
140.792
20
-95.4285
11
140.823
21
-95.4666
0
LINE
8
BLACK
6
CONTINUOUS
10
140.823
20
-95.4666
11
140.858
21
-95.5015
0
LINE
8
BLACK
6
CONTINUOUS
10
140.858
20
-95.5015
11
140.885
21
-95.5426
0
LINE
8
BLACK
6
CONTINUOUS
10
140.885
20
-95.5426
11
140.916
21
-95.5807
0
LINE
8
BLACK
6
CONTINUOUS
10
140.916
20
-95.5807
11
140.94
21
-95.6243
0
LINE
8
BLACK
6
CONTINUOUS
10
140.94
20
-95.6243
11
140.967
21
-95.6653
0
LINE
8
BLACK
6
CONTINUOUS
10
140.967
20
-95.6653
11
140.986
21
-95.7109
0
LINE
8
BLACK
6
CONTINUOUS
10
140.986
20
-95.7109
11
141.009
21
-95.7545
0
LINE
8
BLACK
6
CONTINUOUS
10
141.009
20
-95.7545
11
141.024
21
-95.8017
0
LINE
8
BLACK
6
CONTINUOUS
10
141.024
20
-95.8017
11
141.043
21
-95.8473
0
LINE
8
BLACK
6
CONTINUOUS
10
141.043
20
-95.8473
11
141.052
21
-95.8957
0
LINE
8
BLACK
6
CONTINUOUS
10
141.052
20
-95.8957
11
141.067
21
-95.943
0
LINE
8
BLACK
6
CONTINUOUS
10
141.067
20
-95.943
11
141.071
21
-95.9921
0
LINE
8
BLACK
6
CONTINUOUS
10
141.071
20
-95.9921
11
141.081
21
-96.0405
0
LINE
8
BLACK
6
CONTINUOUS
10
141.081
20
-96.0405
11
141.081
21
-102.964
0
LINE
8
BLACK
6
CONTINUOUS
10
141.081
20
-102.964
11
142.22
21
-104.103
0
CIRCLE
8
BLACK
10
140.081
20
-100.457
40
0.175
0
CIRCLE
8
BLACK
10
140.081
20
-96.139
40
0.175
0
CIRCLE
8
BLACK
10
145.161
20
-98.298
40
0.175
0
CIRCLE
8
BLACK
10
144.018
20
-104.775
40
0.175
0
CIRCLE
8
BLACK
10
141.478
20
-104.775
40
0.175
  0
ENDSEC
  0
EOF
