  0
SECTION
  2
HEADER
  9
$ANGBASE
  50
0.0
  9
$ANGDIR
  70
1
  9
$MEASUREMENT
  70
1
  0
ENDSEC
  0
SECTION
  2
TABLES
  0
TABLE
  2
LTYPE
  70
4
  0
LTYPE
  5
40F
  2
CONTINUOUS
  70
0
  3
Solid line
  72
65
  73
0
  40
0.0
  0
LTYPE
  5
410
  2
DASHDOT
 70
0
  3
Dash Dot ____ _ ____ _
 72
65
 73
4
 40
2.0
 49
1.25
 49
-0.25
 49
0.25
 49
-0.25
  0
LTYPE
  5
411
  2
DASHED
 70
0
  3
Dashed __ __ __ __ __
 72
65
 73
2
 40
0.75
 49
0.5
 49
-0.25
  0
LTYPE
  5
43B
  2
DOTTED
 70
0
  3
Dotted .  .  .  .
 72
65
 73
2
 40
0.2
 49
0.0
 49
-0.2
  0
ENDTAB
  0
TABLE
  2
STYLE
  70
4
  0
STYLE
  2
KICAD
  70
0
  40
0
  41
1
  42
1
  50
0
  71
0
  3
isocp.shx
  0
STYLE
  2
KICADB
  70
0
  40
0
  41
1
  42
1
  50
0
  71
0
  3
isocp.shx
  0
STYLE
  2
KICADI
  70
0
  40
0
  41
1
  42
1
  50
15
  71
0
  3
isocp.shx
  0
STYLE
  2
KICADBI
  70
0
  40
0
  41
1
  42
1
  50
15
  71
0
  3
isocp.shx
  0
ENDTAB
  0
TABLE
  2
LAYER
  70
1
  0
LAYER
  2
BLACK
  70
0
  62
7
  6
CONTINUOUS
  0
ENDTAB
  0
ENDSEC
  0
SECTION
  2
ENTITIES
0
LINE
8
BLACK
6
CONTINUOUS
10
145.455
20
-96.6927
11
145.738
21
-96.7785
0
LINE
8
BLACK
6
CONTINUOUS
10
145.738
20
-96.7785
11
145.998
21
-96.9178
0
LINE
8
BLACK
6
CONTINUOUS
10
145.998
20
-96.9178
11
146.227
21
-97.1052
0
LINE
8
BLACK
6
CONTINUOUS
10
146.227
20
-97.1052
11
146.414
21
-97.3336
0
LINE
8
BLACK
6
CONTINUOUS
10
146.414
20
-97.3336
11
146.554
21
-97.5942
0
LINE
8
BLACK
6
CONTINUOUS
10
146.554
20
-97.5942
11
146.639
21
-97.8769
0
LINE
8
BLACK
6
CONTINUOUS
10
146.639
20
-97.8769
11
146.661
21
-98.0973
0
LINE
8
BLACK
6
CONTINUOUS
10
146.661
20
-98.0973
11
146.661
21
-104.754
0
LINE
8
BLACK
6
CONTINUOUS
10
146.661
20
-104.754
11
146.668
21
-104.828
0
LINE
8
BLACK
6
CONTINUOUS
10
146.668
20
-104.828
11
146.661
21
-104.902
0
LINE
8
BLACK
6
CONTINUOUS
10
146.661
20
-104.902
11
146.639
21
-105.122
0
LINE
8
BLACK
6
CONTINUOUS
10
146.639
20
-105.122
11
146.554
21
-105.405
0
LINE
8
BLACK
6
CONTINUOUS
10
146.554
20
-105.405
11
146.414
21
-105.665
0
LINE
8
BLACK
6
CONTINUOUS
10
146.414
20
-105.665
11
146.227
21
-105.894
0
LINE
8
BLACK
6
CONTINUOUS
10
146.227
20
-105.894
11
146.17
21
-105.941
0
LINE
8
BLACK
6
CONTINUOUS
10
146.17
20
-105.941
11
146.043
21
-106.068
0
LINE
8
BLACK
6
CONTINUOUS
10
146.043
20
-106.068
11
145.871
21
-106.208
0
LINE
8
BLACK
6
CONTINUOUS
10
145.871
20
-106.208
11
145.611
21
-106.348
0
LINE
8
BLACK
6
CONTINUOUS
10
145.611
20
-106.348
11
145.328
21
-106.433
0
LINE
8
BLACK
6
CONTINUOUS
10
145.328
20
-106.433
11
145.034
21
-106.462
0
LINE
8
BLACK
6
CONTINUOUS
10
145.034
20
-106.462
11
144.74
21
-106.433
0
LINE
8
BLACK
6
CONTINUOUS
10
144.74
20
-106.433
11
144.457
21
-106.348
0
LINE
8
BLACK
6
CONTINUOUS
10
144.457
20
-106.348
11
144.197
21
-106.208
0
LINE
8
BLACK
6
CONTINUOUS
10
144.197
20
-106.208
11
143.968
21
-106.021
0
LINE
8
BLACK
6
CONTINUOUS
10
143.968
20
-106.021
11
143.781
21
-105.792
0
LINE
8
BLACK
6
CONTINUOUS
10
143.781
20
-105.792
11
143.641
21
-105.532
0
LINE
8
BLACK
6
CONTINUOUS
10
143.641
20
-105.532
11
143.556
21
-105.249
0
LINE
8
BLACK
6
CONTINUOUS
10
143.556
20
-105.249
11
143.527
21
-104.955
0
LINE
8
BLACK
6
CONTINUOUS
10
143.527
20
-104.955
11
143.556
21
-104.661
0
LINE
8
BLACK
6
CONTINUOUS
10
143.556
20
-104.661
11
143.641
21
-104.378
0
LINE
8
BLACK
6
CONTINUOUS
10
143.641
20
-104.378
11
143.661
21
-104.342
0
LINE
8
BLACK
6
CONTINUOUS
10
143.661
20
-104.342
11
143.661
21
-98.0973
0
LINE
8
BLACK
6
CONTINUOUS
10
143.661
20
-98.0973
11
143.683
21
-97.8769
0
LINE
8
BLACK
6
CONTINUOUS
10
143.683
20
-97.8769
11
143.768
21
-97.5942
0
LINE
8
BLACK
6
CONTINUOUS
10
143.768
20
-97.5942
11
143.908
21
-97.3336
0
LINE
8
BLACK
6
CONTINUOUS
10
143.908
20
-97.3336
11
144.095
21
-97.1052
0
LINE
8
BLACK
6
CONTINUOUS
10
144.095
20
-97.1052
11
144.324
21
-96.9178
0
LINE
8
BLACK
6
CONTINUOUS
10
144.324
20
-96.9178
11
144.584
21
-96.7785
0
LINE
8
BLACK
6
CONTINUOUS
10
144.584
20
-96.7785
11
144.867
21
-96.6927
0
LINE
8
BLACK
6
CONTINUOUS
10
144.867
20
-96.6927
11
145.161
21
-96.6637
0
LINE
8
BLACK
6
CONTINUOUS
10
145.161
20
-96.6637
11
145.455
21
-96.6927
0
LINE
8
BLACK
6
CONTINUOUS
10
140.629
20
-94.2797
11
140.912
21
-94.3655
0
LINE
8
BLACK
6
CONTINUOUS
10
140.912
20
-94.3655
11
141.172
21
-94.5048
0
LINE
8
BLACK
6
CONTINUOUS
10
141.172
20
-94.5048
11
141.401
21
-94.6922
0
LINE
8
BLACK
6
CONTINUOUS
10
141.401
20
-94.6922
11
141.588
21
-94.9206
0
LINE
8
BLACK
6
CONTINUOUS
10
141.588
20
-94.9206
11
141.728
21
-95.1812
0
LINE
8
BLACK
6
CONTINUOUS
10
141.728
20
-95.1812
11
141.813
21
-95.4639
0
LINE
8
BLACK
6
CONTINUOUS
10
141.813
20
-95.4639
11
141.835
21
-95.6843
0
LINE
8
BLACK
6
CONTINUOUS
10
141.835
20
-95.6843
11
141.835
21
-104.5
0
LINE
8
BLACK
6
CONTINUOUS
10
141.835
20
-104.5
11
141.842
21
-104.574
0
LINE
8
BLACK
6
CONTINUOUS
10
141.842
20
-104.574
11
141.835
21
-104.648
0
LINE
8
BLACK
6
CONTINUOUS
10
141.835
20
-104.648
11
141.835
21
-104.648
0
LINE
8
BLACK
6
CONTINUOUS
10
141.835
20
-104.648
11
141.813
21
-104.868
0
LINE
8
BLACK
6
CONTINUOUS
10
141.813
20
-104.868
11
141.728
21
-105.151
0
LINE
8
BLACK
6
CONTINUOUS
10
141.728
20
-105.151
11
141.588
21
-105.411
0
LINE
8
BLACK
6
CONTINUOUS
10
141.588
20
-105.411
11
141.401
21
-105.64
0
LINE
8
BLACK
6
CONTINUOUS
10
141.401
20
-105.64
11
141.344
21
-105.687
0
LINE
8
BLACK
6
CONTINUOUS
10
141.344
20
-105.687
11
140.963
21
-106.068
0
LINE
8
BLACK
6
CONTINUOUS
10
140.963
20
-106.068
11
140.791
21
-106.208
0
LINE
8
BLACK
6
CONTINUOUS
10
140.791
20
-106.208
11
140.531
21
-106.348
0
LINE
8
BLACK
6
CONTINUOUS
10
140.531
20
-106.348
11
140.248
21
-106.433
0
LINE
8
BLACK
6
CONTINUOUS
10
140.248
20
-106.433
11
139.954
21
-106.462
0
LINE
8
BLACK
6
CONTINUOUS
10
139.954
20
-106.462
11
139.66
21
-106.433
0
LINE
8
BLACK
6
CONTINUOUS
10
139.66
20
-106.433
11
139.377
21
-106.348
0
LINE
8
BLACK
6
CONTINUOUS
10
139.377
20
-106.348
11
139.117
21
-106.208
0
LINE
8
BLACK
6
CONTINUOUS
10
139.117
20
-106.208
11
138.888
21
-106.021
0
LINE
8
BLACK
6
CONTINUOUS
10
138.888
20
-106.021
11
138.701
21
-105.792
0
LINE
8
BLACK
6
CONTINUOUS
10
138.701
20
-105.792
11
138.561
21
-105.532
0
LINE
8
BLACK
6
CONTINUOUS
10
138.561
20
-105.532
11
138.476
21
-105.249
0
LINE
8
BLACK
6
CONTINUOUS
10
138.476
20
-105.249
11
138.447
21
-104.955
0
LINE
8
BLACK
6
CONTINUOUS
10
138.447
20
-104.955
11
138.476
21
-104.661
0
LINE
8
BLACK
6
CONTINUOUS
10
138.476
20
-104.661
11
138.561
21
-104.378
0
LINE
8
BLACK
6
CONTINUOUS
10
138.561
20
-104.378
11
138.701
21
-104.118
0
LINE
8
BLACK
6
CONTINUOUS
10
138.701
20
-104.118
11
138.835
21
-103.954
0
LINE
8
BLACK
6
CONTINUOUS
10
138.835
20
-103.954
11
138.835
21
-95.6843
0
LINE
8
BLACK
6
CONTINUOUS
10
138.835
20
-95.6843
11
138.857
21
-95.4639
0
LINE
8
BLACK
6
CONTINUOUS
10
138.857
20
-95.4639
11
138.942
21
-95.1812
0
LINE
8
BLACK
6
CONTINUOUS
10
138.942
20
-95.1812
11
139.082
21
-94.9206
0
LINE
8
BLACK
6
CONTINUOUS
10
139.082
20
-94.9206
11
139.269
21
-94.6922
0
LINE
8
BLACK
6
CONTINUOUS
10
139.269
20
-94.6922
11
139.498
21
-94.5048
0
LINE
8
BLACK
6
CONTINUOUS
10
139.498
20
-94.5048
11
139.758
21
-94.3655
0
LINE
8
BLACK
6
CONTINUOUS
10
139.758
20
-94.3655
11
140.041
21
-94.2797
0
LINE
8
BLACK
6
CONTINUOUS
10
140.041
20
-94.2797
11
140.335
21
-94.2507
0
LINE
8
BLACK
6
CONTINUOUS
10
140.335
20
-94.2507
11
140.629
21
-94.2797
0
CIRCLE
8
BLACK
10
145.034
20
-105.156
40
0.175
0
CIRCLE
8
BLACK
10
139.954
20
-105.156
40
0.175
0
CIRCLE
8
BLACK
10
140.208
20
-100.584
40
0.175
0
CIRCLE
8
BLACK
10
140.335
20
-95.758
40
0.175
0
CIRCLE
8
BLACK
10
145.161
20
-98.171
40
0.175
  0
ENDSEC
  0
EOF
