  0
SECTION
  2
HEADER
  9
$ANGBASE
  50
0.0
  9
$ANGDIR
  70
1
  9
$MEASUREMENT
  70
1
  0
ENDSEC
  0
SECTION
  2
TABLES
  0
TABLE
  2
LTYPE
  70
4
  0
LTYPE
  5
40F
  2
CONTINUOUS
  70
0
  3
Solid line
  72
65
  73
0
  40
0.0
  0
LTYPE
  5
410
  2
DASHDOT
 70
0
  3
Dash Dot ____ _ ____ _
 72
65
 73
4
 40
2.0
 49
1.25
 49
-0.25
 49
0.25
 49
-0.25
  0
LTYPE
  5
411
  2
DASHED
 70
0
  3
Dashed __ __ __ __ __
 72
65
 73
2
 40
0.75
 49
0.5
 49
-0.25
  0
LTYPE
  5
43B
  2
DOTTED
 70
0
  3
Dotted .  .  .  .
 72
65
 73
2
 40
0.2
 49
0.0
 49
-0.2
  0
ENDTAB
  0
TABLE
  2
STYLE
  70
4
  0
STYLE
  2
KICAD
  70
0
  40
0
  41
1
  42
1
  50
0
  71
0
  3
isocp.shx
  0
STYLE
  2
KICADB
  70
0
  40
0
  41
1
  42
1
  50
0
  71
0
  3
isocp.shx
  0
STYLE
  2
KICADI
  70
0
  40
0
  41
1
  42
1
  50
15
  71
0
  3
isocp.shx
  0
STYLE
  2
KICADBI
  70
0
  40
0
  41
1
  42
1
  50
15
  71
0
  3
isocp.shx
  0
ENDTAB
  0
TABLE
  2
LAYER
  70
1
  0
LAYER
  2
BLACK
  70
0
  62
7
  6
CONTINUOUS
  0
ENDTAB
  0
ENDSEC
  0
SECTION
  2
ENTITIES
0
LINE
8
BLACK
6
CONTINUOUS
10
147.321
20
-93.193
11
147.325
21
-93.1934
0
LINE
8
BLACK
6
CONTINUOUS
10
147.325
20
-93.1934
11
147.33
21
-93.1948
0
LINE
8
BLACK
6
CONTINUOUS
10
147.33
20
-93.1948
11
147.334
21
-93.1971
0
LINE
8
BLACK
6
CONTINUOUS
10
147.334
20
-93.1971
11
147.338
21
-93.2002
0
LINE
8
BLACK
6
CONTINUOUS
10
147.338
20
-93.2002
11
147.341
21
-93.204
0
LINE
8
BLACK
6
CONTINUOUS
10
147.341
20
-93.204
11
147.343
21
-93.2084
0
LINE
8
BLACK
6
CONTINUOUS
10
147.343
20
-93.2084
11
147.345
21
-93.2131
0
LINE
8
BLACK
6
CONTINUOUS
10
147.345
20
-93.2131
11
147.345
21
-93.218
0
LINE
8
BLACK
6
CONTINUOUS
10
147.345
20
-93.218
11
147.345
21
-93.2192
0
LINE
8
BLACK
6
CONTINUOUS
10
147.345
20
-93.2192
11
147.345
21
-106.679
0
LINE
8
BLACK
6
CONTINUOUS
10
147.345
20
-106.679
11
147.345
21
-106.68
0
LINE
8
BLACK
6
CONTINUOUS
10
147.345
20
-106.68
11
147.345
21
-106.685
0
LINE
8
BLACK
6
CONTINUOUS
10
147.345
20
-106.685
11
147.343
21
-106.69
0
LINE
8
BLACK
6
CONTINUOUS
10
147.343
20
-106.69
11
147.341
21
-106.694
0
LINE
8
BLACK
6
CONTINUOUS
10
147.341
20
-106.694
11
147.338
21
-106.698
0
LINE
8
BLACK
6
CONTINUOUS
10
147.338
20
-106.698
11
147.334
21
-106.701
0
LINE
8
BLACK
6
CONTINUOUS
10
147.334
20
-106.701
11
147.33
21
-106.703
0
LINE
8
BLACK
6
CONTINUOUS
10
147.33
20
-106.703
11
147.325
21
-106.705
0
LINE
8
BLACK
6
CONTINUOUS
10
147.325
20
-106.705
11
147.321
21
-106.705
0
LINE
8
BLACK
6
CONTINUOUS
10
147.321
20
-106.705
11
147.321
21
-106.705
0
LINE
8
BLACK
6
CONTINUOUS
10
147.321
20
-106.705
11
147.32
21
-106.705
0
LINE
8
BLACK
6
CONTINUOUS
10
147.32
20
-106.705
11
147.319
21
-106.705
0
LINE
8
BLACK
6
CONTINUOUS
10
147.319
20
-106.705
11
138.177
21
-106.705
0
LINE
8
BLACK
6
CONTINUOUS
10
138.177
20
-106.705
11
138.176
21
-106.705
0
LINE
8
BLACK
6
CONTINUOUS
10
138.176
20
-106.705
11
138.175
21
-106.705
0
LINE
8
BLACK
6
CONTINUOUS
10
138.175
20
-106.705
11
138.175
21
-106.705
0
LINE
8
BLACK
6
CONTINUOUS
10
138.175
20
-106.705
11
138.171
21
-106.705
0
LINE
8
BLACK
6
CONTINUOUS
10
138.171
20
-106.705
11
138.166
21
-106.703
0
LINE
8
BLACK
6
CONTINUOUS
10
138.166
20
-106.703
11
138.162
21
-106.701
0
LINE
8
BLACK
6
CONTINUOUS
10
138.162
20
-106.701
11
138.158
21
-106.698
0
LINE
8
BLACK
6
CONTINUOUS
10
138.158
20
-106.698
11
138.155
21
-106.694
0
LINE
8
BLACK
6
CONTINUOUS
10
138.155
20
-106.694
11
138.153
21
-106.69
0
LINE
8
BLACK
6
CONTINUOUS
10
138.153
20
-106.69
11
138.151
21
-106.685
0
LINE
8
BLACK
6
CONTINUOUS
10
138.151
20
-106.685
11
138.151
21
-106.68
0
LINE
8
BLACK
6
CONTINUOUS
10
138.151
20
-106.68
11
138.151
21
-106.679
0
LINE
8
BLACK
6
CONTINUOUS
10
138.151
20
-106.679
11
138.151
21
-93.2192
0
LINE
8
BLACK
6
CONTINUOUS
10
138.151
20
-93.2192
11
138.151
21
-93.218
0
LINE
8
BLACK
6
CONTINUOUS
10
138.151
20
-93.218
11
138.151
21
-93.2131
0
LINE
8
BLACK
6
CONTINUOUS
10
138.151
20
-93.2131
11
138.153
21
-93.2084
0
LINE
8
BLACK
6
CONTINUOUS
10
138.153
20
-93.2084
11
138.155
21
-93.204
0
LINE
8
BLACK
6
CONTINUOUS
10
138.155
20
-93.204
11
138.158
21
-93.2002
0
LINE
8
BLACK
6
CONTINUOUS
10
138.158
20
-93.2002
11
138.162
21
-93.1971
0
LINE
8
BLACK
6
CONTINUOUS
10
138.162
20
-93.1971
11
138.166
21
-93.1948
0
LINE
8
BLACK
6
CONTINUOUS
10
138.166
20
-93.1948
11
138.171
21
-93.1934
0
LINE
8
BLACK
6
CONTINUOUS
10
138.171
20
-93.1934
11
138.175
21
-93.193
0
LINE
8
BLACK
6
CONTINUOUS
10
138.175
20
-93.193
11
138.176
21
-93.1929
0
LINE
8
BLACK
6
CONTINUOUS
10
138.176
20
-93.1929
11
138.177
21
-93.193
0
LINE
8
BLACK
6
CONTINUOUS
10
138.177
20
-93.193
11
147.319
21
-93.193
0
LINE
8
BLACK
6
CONTINUOUS
10
147.319
20
-93.193
11
147.32
21
-93.1929
0
LINE
8
BLACK
6
CONTINUOUS
10
147.32
20
-93.1929
11
147.321
21
-93.193
0
LINE
8
BLACK
6
CONTINUOUS
10
138.201
20
-93.243
11
138.201
21
-106.655
0
LINE
8
BLACK
6
CONTINUOUS
10
138.201
20
-106.655
11
147.295
21
-106.655
0
LINE
8
BLACK
6
CONTINUOUS
10
147.295
20
-106.655
11
147.295
21
-93.243
0
LINE
8
BLACK
6
CONTINUOUS
10
147.295
20
-93.243
11
138.201
21
-93.243
  0
ENDSEC
  0
EOF
