  0
SECTION
  2
HEADER
  9
$ANGBASE
  50
0.0
  9
$ANGDIR
  70
1
  9
$MEASUREMENT
  70
0
  0
ENDSEC
  0
SECTION
  2
TABLES
  0
TABLE
  2
LTYPE
  70
4
  0
LTYPE
  5
40F
  2
CONTINUOUS
  70
0
  3
Solid line
  72
65
  73
0
  40
0.0
  0
LTYPE
  5
410
  2
DASHDOT
 70
0
  3
Dash Dot ____ _ ____ _
 72
65
 73
4
 40
2.0
 49
1.25
 49
-0.25
 49
0.25
 49
-0.25
  0
LTYPE
  5
411
  2
DASHED
 70
0
  3
Dashed __ __ __ __ __
 72
65
 73
2
 40
0.75
 49
0.5
 49
-0.25
  0
LTYPE
  5
43B
  2
DOTTED
 70
0
  3
Dotted .  .  .  .
 72
65
 73
2
 40
0.2
 49
0.0
 49
-0.2
  0
ENDTAB
  0
TABLE
  2
STYLE
  70
4
  0
STYLE
  2
KICAD
  70
0
  40
0
  41
1
  42
1
  50
0
  71
0
  3
isocp.shx
  0
STYLE
  2
KICADB
  70
0
  40
0
  41
1
  42
1
  50
0
  71
0
  3
isocp.shx
  0
STYLE
  2
KICADI
  70
0
  40
0
  41
1
  42
1
  50
15
  71
0
  3
isocp.shx
  0
STYLE
  2
KICADBI
  70
0
  40
0
  41
1
  42
1
  50
15
  71
0
  3
isocp.shx
  0
ENDTAB
  0
TABLE
  2
LAYER
  70
1
  0
LAYER
  2
BLACK
  70
0
  62
7
  6
CONTINUOUS
  0
ENDTAB
  0
ENDSEC
  0
SECTION
  2
ENTITIES
0
LINE
8
BLACK
6
CONTINUOUS
10
5.75456
20
-4.08
11
5.75437
21
-4.08193
0
LINE
8
BLACK
6
CONTINUOUS
10
5.75437
20
-4.08193
11
5.7538
21
-4.08772
0
LINE
8
BLACK
6
CONTINUOUS
10
5.7538
20
-4.08772
11
5.75155
21
-4.09514
0
LINE
8
BLACK
6
CONTINUOUS
10
5.75155
20
-4.09514
11
5.74789
21
-4.10198
0
LINE
8
BLACK
6
CONTINUOUS
10
5.74789
20
-4.10198
11
5.74297
21
-4.10797
0
LINE
8
BLACK
6
CONTINUOUS
10
5.74297
20
-4.10797
11
5.74147
21
-4.10921
0
LINE
8
BLACK
6
CONTINUOUS
10
5.74147
20
-4.10921
11
5.69647
21
-4.15421
0
LINE
8
BLACK
6
CONTINUOUS
10
5.69647
20
-4.15421
11
5.69198
21
-4.15789
0
LINE
8
BLACK
6
CONTINUOUS
10
5.69198
20
-4.15789
11
5.68514
21
-4.16155
0
LINE
8
BLACK
6
CONTINUOUS
10
5.68514
20
-4.16155
11
5.67772
21
-4.1638
0
LINE
8
BLACK
6
CONTINUOUS
10
5.67772
20
-4.1638
11
5.67
21
-4.16456
0
LINE
8
BLACK
6
CONTINUOUS
10
5.67
20
-4.16456
11
5.66228
21
-4.1638
0
LINE
8
BLACK
6
CONTINUOUS
10
5.66228
20
-4.1638
11
5.65486
21
-4.16155
0
LINE
8
BLACK
6
CONTINUOUS
10
5.65486
20
-4.16155
11
5.64802
21
-4.15789
0
LINE
8
BLACK
6
CONTINUOUS
10
5.64802
20
-4.15789
11
5.64203
21
-4.15297
0
LINE
8
BLACK
6
CONTINUOUS
10
5.64203
20
-4.15297
11
5.63711
21
-4.14698
0
LINE
8
BLACK
6
CONTINUOUS
10
5.63711
20
-4.14698
11
5.63345
21
-4.14014
0
LINE
8
BLACK
6
CONTINUOUS
10
5.63345
20
-4.14014
11
5.6312
21
-4.13272
0
LINE
8
BLACK
6
CONTINUOUS
10
5.6312
20
-4.13272
11
5.63044
21
-4.125
0
LINE
8
BLACK
6
CONTINUOUS
10
5.63044
20
-4.125
11
5.6312
21
-4.11728
0
LINE
8
BLACK
6
CONTINUOUS
10
5.6312
20
-4.11728
11
5.63345
21
-4.10986
0
LINE
8
BLACK
6
CONTINUOUS
10
5.63345
20
-4.10986
11
5.63711
21
-4.10302
0
LINE
8
BLACK
6
CONTINUOUS
10
5.63711
20
-4.10302
11
5.64079
21
-4.09853
0
LINE
8
BLACK
6
CONTINUOUS
10
5.64079
20
-4.09853
11
5.67563
21
-4.06369
0
LINE
8
BLACK
6
CONTINUOUS
10
5.67563
20
-4.06369
11
5.67563
21
-3.86807
0
LINE
8
BLACK
6
CONTINUOUS
10
5.67563
20
-3.86807
11
5.67563
21
-3.86612
0
LINE
8
BLACK
6
CONTINUOUS
10
5.67563
20
-3.86612
11
5.67601
21
-3.86422
0
LINE
8
BLACK
6
CONTINUOUS
10
5.67601
20
-3.86422
11
5.6762
21
-3.86228
0
LINE
8
BLACK
6
CONTINUOUS
10
5.6762
20
-3.86228
11
5.67676
21
-3.86042
0
LINE
8
BLACK
6
CONTINUOUS
10
5.67676
20
-3.86042
11
5.67714
21
-3.85852
0
LINE
8
BLACK
6
CONTINUOUS
10
5.67714
20
-3.85852
11
5.67789
21
-3.85672
0
LINE
8
BLACK
6
CONTINUOUS
10
5.67789
20
-3.85672
11
5.67845
21
-3.85486
0
LINE
8
BLACK
6
CONTINUOUS
10
5.67845
20
-3.85486
11
5.67937
21
-3.85315
0
LINE
8
BLACK
6
CONTINUOUS
10
5.67937
20
-3.85315
11
5.68011
21
-3.85135
0
LINE
8
BLACK
6
CONTINUOUS
10
5.68011
20
-3.85135
11
5.68119
21
-3.84973
0
LINE
8
BLACK
6
CONTINUOUS
10
5.68119
20
-3.84973
11
5.68211
21
-3.84802
0
LINE
8
BLACK
6
CONTINUOUS
10
5.68211
20
-3.84802
11
5.68334
21
-3.84652
0
LINE
8
BLACK
6
CONTINUOUS
10
5.68334
20
-3.84652
11
5.68442
21
-3.8449
0
LINE
8
BLACK
6
CONTINUOUS
10
5.68442
20
-3.8449
11
5.68579
21
-3.84353
0
LINE
8
BLACK
6
CONTINUOUS
10
5.68579
20
-3.84353
11
5.68703
21
-3.84203
0
LINE
8
BLACK
6
CONTINUOUS
10
5.68703
20
-3.84203
11
5.68853
21
-3.84079
0
LINE
8
BLACK
6
CONTINUOUS
10
5.68853
20
-3.84079
11
5.6899
21
-3.83942
0
LINE
8
BLACK
6
CONTINUOUS
10
5.6899
20
-3.83942
11
5.69152
21
-3.83834
0
LINE
8
BLACK
6
CONTINUOUS
10
5.69152
20
-3.83834
11
5.69302
21
-3.83711
0
LINE
8
BLACK
6
CONTINUOUS
10
5.69302
20
-3.83711
11
5.69473
21
-3.83619
0
LINE
8
BLACK
6
CONTINUOUS
10
5.69473
20
-3.83619
11
5.69635
21
-3.83511
0
LINE
8
BLACK
6
CONTINUOUS
10
5.69635
20
-3.83511
11
5.69815
21
-3.83437
0
LINE
8
BLACK
6
CONTINUOUS
10
5.69815
20
-3.83437
11
5.69986
21
-3.83345
0
LINE
8
BLACK
6
CONTINUOUS
10
5.69986
20
-3.83345
11
5.70172
21
-3.83289
0
LINE
8
BLACK
6
CONTINUOUS
10
5.70172
20
-3.83289
11
5.70352
21
-3.83214
0
LINE
8
BLACK
6
CONTINUOUS
10
5.70352
20
-3.83214
11
5.70542
21
-3.83176
0
LINE
8
BLACK
6
CONTINUOUS
10
5.70542
20
-3.83176
11
5.70728
21
-3.8312
0
LINE
8
BLACK
6
CONTINUOUS
10
5.70728
20
-3.8312
11
5.70922
21
-3.83101
0
LINE
8
BLACK
6
CONTINUOUS
10
5.70922
20
-3.83101
11
5.71112
21
-3.83063
0
LINE
8
BLACK
6
CONTINUOUS
10
5.71112
20
-3.83063
11
5.71307
21
-3.83063
0
LINE
8
BLACK
6
CONTINUOUS
10
5.71307
20
-3.83063
11
5.715
21
-3.83044
0
LINE
8
BLACK
6
CONTINUOUS
10
5.715
20
-3.83044
11
5.71693
21
-3.83063
0
LINE
8
BLACK
6
CONTINUOUS
10
5.71693
20
-3.83063
11
5.71888
21
-3.83063
0
LINE
8
BLACK
6
CONTINUOUS
10
5.71888
20
-3.83063
11
5.72078
21
-3.83101
0
LINE
8
BLACK
6
CONTINUOUS
10
5.72078
20
-3.83101
11
5.72272
21
-3.8312
0
LINE
8
BLACK
6
CONTINUOUS
10
5.72272
20
-3.8312
11
5.72458
21
-3.83176
0
LINE
8
BLACK
6
CONTINUOUS
10
5.72458
20
-3.83176
11
5.72648
21
-3.83214
0
LINE
8
BLACK
6
CONTINUOUS
10
5.72648
20
-3.83214
11
5.72828
21
-3.83289
0
LINE
8
BLACK
6
CONTINUOUS
10
5.72828
20
-3.83289
11
5.73014
21
-3.83345
0
LINE
8
BLACK
6
CONTINUOUS
10
5.73014
20
-3.83345
11
5.73185
21
-3.83437
0
LINE
8
BLACK
6
CONTINUOUS
10
5.73185
20
-3.83437
11
5.73365
21
-3.83511
0
LINE
8
BLACK
6
CONTINUOUS
10
5.73365
20
-3.83511
11
5.73527
21
-3.83619
0
LINE
8
BLACK
6
CONTINUOUS
10
5.73527
20
-3.83619
11
5.73698
21
-3.83711
0
LINE
8
BLACK
6
CONTINUOUS
10
5.73698
20
-3.83711
11
5.73848
21
-3.83834
0
LINE
8
BLACK
6
CONTINUOUS
10
5.73848
20
-3.83834
11
5.7401
21
-3.83942
0
LINE
8
BLACK
6
CONTINUOUS
10
5.7401
20
-3.83942
11
5.74147
21
-3.84079
0
LINE
8
BLACK
6
CONTINUOUS
10
5.74147
20
-3.84079
11
5.74297
21
-3.84203
0
LINE
8
BLACK
6
CONTINUOUS
10
5.74297
20
-3.84203
11
5.74421
21
-3.84353
0
LINE
8
BLACK
6
CONTINUOUS
10
5.74421
20
-3.84353
11
5.74558
21
-3.8449
0
LINE
8
BLACK
6
CONTINUOUS
10
5.74558
20
-3.8449
11
5.74666
21
-3.84652
0
LINE
8
BLACK
6
CONTINUOUS
10
5.74666
20
-3.84652
11
5.74789
21
-3.84802
0
LINE
8
BLACK
6
CONTINUOUS
10
5.74789
20
-3.84802
11
5.74881
21
-3.84973
0
LINE
8
BLACK
6
CONTINUOUS
10
5.74881
20
-3.84973
11
5.74989
21
-3.85135
0
LINE
8
BLACK
6
CONTINUOUS
10
5.74989
20
-3.85135
11
5.75063
21
-3.85315
0
LINE
8
BLACK
6
CONTINUOUS
10
5.75063
20
-3.85315
11
5.75155
21
-3.85486
0
LINE
8
BLACK
6
CONTINUOUS
10
5.75155
20
-3.85486
11
5.75211
21
-3.85672
0
LINE
8
BLACK
6
CONTINUOUS
10
5.75211
20
-3.85672
11
5.75286
21
-3.85852
0
LINE
8
BLACK
6
CONTINUOUS
10
5.75286
20
-3.85852
11
5.75324
21
-3.86042
0
LINE
8
BLACK
6
CONTINUOUS
10
5.75324
20
-3.86042
11
5.7538
21
-3.86228
0
LINE
8
BLACK
6
CONTINUOUS
10
5.7538
20
-3.86228
11
5.75399
21
-3.86422
0
LINE
8
BLACK
6
CONTINUOUS
10
5.75399
20
-3.86422
11
5.75437
21
-3.86612
0
LINE
8
BLACK
6
CONTINUOUS
10
5.75437
20
-3.86612
11
5.75437
21
-4.07807
0
LINE
8
BLACK
6
CONTINUOUS
10
5.75437
20
-4.07807
11
5.75456
21
-4.08
0
LINE
8
BLACK
6
CONTINUOUS
10
5.59921
20
-4.09853
11
5.60289
21
-4.10302
0
LINE
8
BLACK
6
CONTINUOUS
10
5.60289
20
-4.10302
11
5.60655
21
-4.10986
0
LINE
8
BLACK
6
CONTINUOUS
10
5.60655
20
-4.10986
11
5.6088
21
-4.11728
0
LINE
8
BLACK
6
CONTINUOUS
10
5.6088
20
-4.11728
11
5.60956
21
-4.125
0
LINE
8
BLACK
6
CONTINUOUS
10
5.60956
20
-4.125
11
5.6088
21
-4.13272
0
LINE
8
BLACK
6
CONTINUOUS
10
5.6088
20
-4.13272
11
5.60655
21
-4.14014
0
LINE
8
BLACK
6
CONTINUOUS
10
5.60655
20
-4.14014
11
5.60289
21
-4.14698
0
LINE
8
BLACK
6
CONTINUOUS
10
5.60289
20
-4.14698
11
5.59797
21
-4.15297
0
LINE
8
BLACK
6
CONTINUOUS
10
5.59797
20
-4.15297
11
5.59198
21
-4.15789
0
LINE
8
BLACK
6
CONTINUOUS
10
5.59198
20
-4.15789
11
5.58514
21
-4.16155
0
LINE
8
BLACK
6
CONTINUOUS
10
5.58514
20
-4.16155
11
5.57772
21
-4.1638
0
LINE
8
BLACK
6
CONTINUOUS
10
5.57772
20
-4.1638
11
5.57
21
-4.16456
0
LINE
8
BLACK
6
CONTINUOUS
10
5.57
20
-4.16456
11
5.56228
21
-4.1638
0
LINE
8
BLACK
6
CONTINUOUS
10
5.56228
20
-4.1638
11
5.55486
21
-4.16155
0
LINE
8
BLACK
6
CONTINUOUS
10
5.55486
20
-4.16155
11
5.54802
21
-4.15789
0
LINE
8
BLACK
6
CONTINUOUS
10
5.54802
20
-4.15789
11
5.54353
21
-4.15421
0
LINE
8
BLACK
6
CONTINUOUS
10
5.54353
20
-4.15421
11
5.48853
21
-4.09921
0
LINE
8
BLACK
6
CONTINUOUS
10
5.48853
20
-4.09921
11
5.48703
21
-4.09797
0
LINE
8
BLACK
6
CONTINUOUS
10
5.48703
20
-4.09797
11
5.48211
21
-4.09198
0
LINE
8
BLACK
6
CONTINUOUS
10
5.48211
20
-4.09198
11
5.48015
21
-4.08832
0
LINE
8
BLACK
6
CONTINUOUS
10
5.48015
20
-4.08832
11
5.47845
21
-4.08514
0
LINE
8
BLACK
6
CONTINUOUS
10
5.47845
20
-4.08514
11
5.4762
21
-4.07772
0
LINE
8
BLACK
6
CONTINUOUS
10
5.4762
20
-4.07772
11
5.47544
21
-4.07
0
LINE
8
BLACK
6
CONTINUOUS
10
5.47544
20
-4.07
11
5.47563
21
-4.06807
0
LINE
8
BLACK
6
CONTINUOUS
10
5.47563
20
-4.06807
11
5.47563
21
-3.95888
0
LINE
8
BLACK
6
CONTINUOUS
10
5.47563
20
-3.95888
11
5.47563
21
-3.95888
0
LINE
8
BLACK
6
CONTINUOUS
10
5.47563
20
-3.95888
11
5.47563
21
-3.95112
0
LINE
8
BLACK
6
CONTINUOUS
10
5.47563
20
-3.95112
11
5.47563
21
-3.95112
0
LINE
8
BLACK
6
CONTINUOUS
10
5.47563
20
-3.95112
11
5.47563
21
-3.78307
0
LINE
8
BLACK
6
CONTINUOUS
10
5.47563
20
-3.78307
11
5.47563
21
-3.78112
0
LINE
8
BLACK
6
CONTINUOUS
10
5.47563
20
-3.78112
11
5.47601
21
-3.77922
0
LINE
8
BLACK
6
CONTINUOUS
10
5.47601
20
-3.77922
11
5.4762
21
-3.77728
0
LINE
8
BLACK
6
CONTINUOUS
10
5.4762
20
-3.77728
11
5.47676
21
-3.77542
0
LINE
8
BLACK
6
CONTINUOUS
10
5.47676
20
-3.77542
11
5.47714
21
-3.77352
0
LINE
8
BLACK
6
CONTINUOUS
10
5.47714
20
-3.77352
11
5.47789
21
-3.77172
0
LINE
8
BLACK
6
CONTINUOUS
10
5.47789
20
-3.77172
11
5.47845
21
-3.76986
0
LINE
8
BLACK
6
CONTINUOUS
10
5.47845
20
-3.76986
11
5.47937
21
-3.76815
0
LINE
8
BLACK
6
CONTINUOUS
10
5.47937
20
-3.76815
11
5.48011
21
-3.76635
0
LINE
8
BLACK
6
CONTINUOUS
10
5.48011
20
-3.76635
11
5.48119
21
-3.76473
0
LINE
8
BLACK
6
CONTINUOUS
10
5.48119
20
-3.76473
11
5.48211
21
-3.76302
0
LINE
8
BLACK
6
CONTINUOUS
10
5.48211
20
-3.76302
11
5.48334
21
-3.76152
0
LINE
8
BLACK
6
CONTINUOUS
10
5.48334
20
-3.76152
11
5.48442
21
-3.7599
0
LINE
8
BLACK
6
CONTINUOUS
10
5.48442
20
-3.7599
11
5.48579
21
-3.75853
0
LINE
8
BLACK
6
CONTINUOUS
10
5.48579
20
-3.75853
11
5.48703
21
-3.75703
0
LINE
8
BLACK
6
CONTINUOUS
10
5.48703
20
-3.75703
11
5.48853
21
-3.75579
0
LINE
8
BLACK
6
CONTINUOUS
10
5.48853
20
-3.75579
11
5.4899
21
-3.75442
0
LINE
8
BLACK
6
CONTINUOUS
10
5.4899
20
-3.75442
11
5.49152
21
-3.75334
0
LINE
8
BLACK
6
CONTINUOUS
10
5.49152
20
-3.75334
11
5.49302
21
-3.75211
0
LINE
8
BLACK
6
CONTINUOUS
10
5.49302
20
-3.75211
11
5.49473
21
-3.75119
0
LINE
8
BLACK
6
CONTINUOUS
10
5.49473
20
-3.75119
11
5.49635
21
-3.75011
0
LINE
8
BLACK
6
CONTINUOUS
10
5.49635
20
-3.75011
11
5.49815
21
-3.74937
0
LINE
8
BLACK
6
CONTINUOUS
10
5.49815
20
-3.74937
11
5.49986
21
-3.74845
0
LINE
8
BLACK
6
CONTINUOUS
10
5.49986
20
-3.74845
11
5.50172
21
-3.74789
0
LINE
8
BLACK
6
CONTINUOUS
10
5.50172
20
-3.74789
11
5.50352
21
-3.74714
0
LINE
8
BLACK
6
CONTINUOUS
10
5.50352
20
-3.74714
11
5.50542
21
-3.74676
0
LINE
8
BLACK
6
CONTINUOUS
10
5.50542
20
-3.74676
11
5.50728
21
-3.7462
0
LINE
8
BLACK
6
CONTINUOUS
10
5.50728
20
-3.7462
11
5.50922
21
-3.74601
0
LINE
8
BLACK
6
CONTINUOUS
10
5.50922
20
-3.74601
11
5.51112
21
-3.74563
0
LINE
8
BLACK
6
CONTINUOUS
10
5.51112
20
-3.74563
11
5.51307
21
-3.74563
0
LINE
8
BLACK
6
CONTINUOUS
10
5.51307
20
-3.74563
11
5.515
21
-3.74544
0
LINE
8
BLACK
6
CONTINUOUS
10
5.515
20
-3.74544
11
5.51693
21
-3.74563
0
LINE
8
BLACK
6
CONTINUOUS
10
5.51693
20
-3.74563
11
5.51888
21
-3.74563
0
LINE
8
BLACK
6
CONTINUOUS
10
5.51888
20
-3.74563
11
5.52078
21
-3.74601
0
LINE
8
BLACK
6
CONTINUOUS
10
5.52078
20
-3.74601
11
5.52272
21
-3.7462
0
LINE
8
BLACK
6
CONTINUOUS
10
5.52272
20
-3.7462
11
5.52458
21
-3.74676
0
LINE
8
BLACK
6
CONTINUOUS
10
5.52458
20
-3.74676
11
5.52648
21
-3.74714
0
LINE
8
BLACK
6
CONTINUOUS
10
5.52648
20
-3.74714
11
5.52828
21
-3.74789
0
LINE
8
BLACK
6
CONTINUOUS
10
5.52828
20
-3.74789
11
5.53014
21
-3.74845
0
LINE
8
BLACK
6
CONTINUOUS
10
5.53014
20
-3.74845
11
5.53185
21
-3.74937
0
LINE
8
BLACK
6
CONTINUOUS
10
5.53185
20
-3.74937
11
5.53365
21
-3.75011
0
LINE
8
BLACK
6
CONTINUOUS
10
5.53365
20
-3.75011
11
5.53527
21
-3.75119
0
LINE
8
BLACK
6
CONTINUOUS
10
5.53527
20
-3.75119
11
5.53698
21
-3.75211
0
LINE
8
BLACK
6
CONTINUOUS
10
5.53698
20
-3.75211
11
5.53848
21
-3.75334
0
LINE
8
BLACK
6
CONTINUOUS
10
5.53848
20
-3.75334
11
5.5401
21
-3.75442
0
LINE
8
BLACK
6
CONTINUOUS
10
5.5401
20
-3.75442
11
5.54147
21
-3.75579
0
LINE
8
BLACK
6
CONTINUOUS
10
5.54147
20
-3.75579
11
5.54297
21
-3.75703
0
LINE
8
BLACK
6
CONTINUOUS
10
5.54297
20
-3.75703
11
5.54421
21
-3.75853
0
LINE
8
BLACK
6
CONTINUOUS
10
5.54421
20
-3.75853
11
5.54558
21
-3.7599
0
LINE
8
BLACK
6
CONTINUOUS
10
5.54558
20
-3.7599
11
5.54666
21
-3.76152
0
LINE
8
BLACK
6
CONTINUOUS
10
5.54666
20
-3.76152
11
5.54789
21
-3.76302
0
LINE
8
BLACK
6
CONTINUOUS
10
5.54789
20
-3.76302
11
5.54881
21
-3.76473
0
LINE
8
BLACK
6
CONTINUOUS
10
5.54881
20
-3.76473
11
5.54989
21
-3.76635
0
LINE
8
BLACK
6
CONTINUOUS
10
5.54989
20
-3.76635
11
5.55063
21
-3.76815
0
LINE
8
BLACK
6
CONTINUOUS
10
5.55063
20
-3.76815
11
5.55155
21
-3.76986
0
LINE
8
BLACK
6
CONTINUOUS
10
5.55155
20
-3.76986
11
5.55211
21
-3.77172
0
LINE
8
BLACK
6
CONTINUOUS
10
5.55211
20
-3.77172
11
5.55286
21
-3.77352
0
LINE
8
BLACK
6
CONTINUOUS
10
5.55286
20
-3.77352
11
5.55324
21
-3.77542
0
LINE
8
BLACK
6
CONTINUOUS
10
5.55324
20
-3.77542
11
5.5538
21
-3.77728
0
LINE
8
BLACK
6
CONTINUOUS
10
5.5538
20
-3.77728
11
5.55399
21
-3.77922
0
LINE
8
BLACK
6
CONTINUOUS
10
5.55399
20
-3.77922
11
5.55437
21
-3.78112
0
LINE
8
BLACK
6
CONTINUOUS
10
5.55437
20
-3.78112
11
5.55437
21
-4.05369
0
LINE
8
BLACK
6
CONTINUOUS
10
5.55437
20
-4.05369
11
5.59921
21
-4.09853
  0
ENDSEC
  0
EOF
