  0
SECTION
  2
HEADER
  9
$ANGBASE
  50
0.0
  9
$ANGDIR
  70
1
  9
$MEASUREMENT
  70
0
  0
ENDSEC
  0
SECTION
  2
TABLES
  0
TABLE
  2
LTYPE
  70
4
  0
LTYPE
  5
40F
  2
CONTINUOUS
  70
0
  3
Solid line
  72
65
  73
0
  40
0.0
  0
LTYPE
  5
410
  2
DASHDOT
 70
0
  3
Dash Dot ____ _ ____ _
 72
65
 73
4
 40
2.0
 49
1.25
 49
-0.25
 49
0.25
 49
-0.25
  0
LTYPE
  5
411
  2
DASHED
 70
0
  3
Dashed __ __ __ __ __
 72
65
 73
2
 40
0.75
 49
0.5
 49
-0.25
  0
LTYPE
  5
43B
  2
DOTTED
 70
0
  3
Dotted .  .  .  .
 72
65
 73
2
 40
0.2
 49
0.0
 49
-0.2
  0
ENDTAB
  0
TABLE
  2
STYLE
  70
4
  0
STYLE
  2
KICAD
  70
0
  40
0
  41
1
  42
1
  50
0
  71
0
  3
isocp.shx
  0
STYLE
  2
KICADB
  70
0
  40
0
  41
1
  42
1
  50
0
  71
0
  3
isocp.shx
  0
STYLE
  2
KICADI
  70
0
  40
0
  41
1
  42
1
  50
15
  71
0
  3
isocp.shx
  0
STYLE
  2
KICADBI
  70
0
  40
0
  41
1
  42
1
  50
15
  71
0
  3
isocp.shx
  0
ENDTAB
  0
TABLE
  2
LAYER
  70
1
  0
LAYER
  2
BLACK
  70
0
  62
7
  6
CONTINUOUS
  0
ENDTAB
  0
ENDSEC
  0
SECTION
  2
ENTITIES
0
LINE
8
BLACK
6
CONTINUOUS
10
5.80005
20
-3.66902
11
5.80019
21
-3.66903
0
LINE
8
BLACK
6
CONTINUOUS
10
5.80019
20
-3.66903
11
5.80038
21
-3.66909
0
LINE
8
BLACK
6
CONTINUOUS
10
5.80038
20
-3.66909
11
5.80055
21
-3.66918
0
LINE
8
BLACK
6
CONTINUOUS
10
5.80055
20
-3.66918
11
5.8007
21
-3.6693
0
LINE
8
BLACK
6
CONTINUOUS
10
5.8007
20
-3.6693
11
5.80082
21
-3.66945
0
LINE
8
BLACK
6
CONTINUOUS
10
5.80082
20
-3.66945
11
5.80091
21
-3.66962
0
LINE
8
BLACK
6
CONTINUOUS
10
5.80091
20
-3.66962
11
5.80097
21
-3.66981
0
LINE
8
BLACK
6
CONTINUOUS
10
5.80097
20
-3.66981
11
5.80099
21
-3.67
0
LINE
8
BLACK
6
CONTINUOUS
10
5.80099
20
-3.67
11
5.80098
21
-3.67005
0
LINE
8
BLACK
6
CONTINUOUS
10
5.80098
20
-3.67005
11
5.80098
21
-4.19995
0
LINE
8
BLACK
6
CONTINUOUS
10
5.80098
20
-4.19995
11
5.80099
21
-4.2
0
LINE
8
BLACK
6
CONTINUOUS
10
5.80099
20
-4.2
11
5.80097
21
-4.20019
0
LINE
8
BLACK
6
CONTINUOUS
10
5.80097
20
-4.20019
11
5.80091
21
-4.20038
0
LINE
8
BLACK
6
CONTINUOUS
10
5.80091
20
-4.20038
11
5.80082
21
-4.20055
0
LINE
8
BLACK
6
CONTINUOUS
10
5.80082
20
-4.20055
11
5.8007
21
-4.2007
0
LINE
8
BLACK
6
CONTINUOUS
10
5.8007
20
-4.2007
11
5.80055
21
-4.20082
0
LINE
8
BLACK
6
CONTINUOUS
10
5.80055
20
-4.20082
11
5.80038
21
-4.20091
0
LINE
8
BLACK
6
CONTINUOUS
10
5.80038
20
-4.20091
11
5.80019
21
-4.20097
0
LINE
8
BLACK
6
CONTINUOUS
10
5.80019
20
-4.20097
11
5.80005
21
-4.20098
0
LINE
8
BLACK
6
CONTINUOUS
10
5.80005
20
-4.20098
11
5.80005
21
-4.20098
0
LINE
8
BLACK
6
CONTINUOUS
10
5.80005
20
-4.20098
11
5.8
21
-4.20099
0
LINE
8
BLACK
6
CONTINUOUS
10
5.8
20
-4.20099
11
5.79995
21
-4.20098
0
LINE
8
BLACK
6
CONTINUOUS
10
5.79995
20
-4.20098
11
5.44005
21
-4.20098
0
LINE
8
BLACK
6
CONTINUOUS
10
5.44005
20
-4.20098
11
5.44
21
-4.20099
0
LINE
8
BLACK
6
CONTINUOUS
10
5.44
20
-4.20099
11
5.43995
21
-4.20098
0
LINE
8
BLACK
6
CONTINUOUS
10
5.43995
20
-4.20098
11
5.43995
21
-4.20098
0
LINE
8
BLACK
6
CONTINUOUS
10
5.43995
20
-4.20098
11
5.43981
21
-4.20097
0
LINE
8
BLACK
6
CONTINUOUS
10
5.43981
20
-4.20097
11
5.43962
21
-4.20091
0
LINE
8
BLACK
6
CONTINUOUS
10
5.43962
20
-4.20091
11
5.43945
21
-4.20082
0
LINE
8
BLACK
6
CONTINUOUS
10
5.43945
20
-4.20082
11
5.4393
21
-4.2007
0
LINE
8
BLACK
6
CONTINUOUS
10
5.4393
20
-4.2007
11
5.43918
21
-4.20055
0
LINE
8
BLACK
6
CONTINUOUS
10
5.43918
20
-4.20055
11
5.43909
21
-4.20038
0
LINE
8
BLACK
6
CONTINUOUS
10
5.43909
20
-4.20038
11
5.43903
21
-4.20019
0
LINE
8
BLACK
6
CONTINUOUS
10
5.43903
20
-4.20019
11
5.43901
21
-4.2
0
LINE
8
BLACK
6
CONTINUOUS
10
5.43901
20
-4.2
11
5.43902
21
-4.19995
0
LINE
8
BLACK
6
CONTINUOUS
10
5.43902
20
-4.19995
11
5.43902
21
-3.67005
0
LINE
8
BLACK
6
CONTINUOUS
10
5.43902
20
-3.67005
11
5.43901
21
-3.67
0
LINE
8
BLACK
6
CONTINUOUS
10
5.43901
20
-3.67
11
5.43903
21
-3.66981
0
LINE
8
BLACK
6
CONTINUOUS
10
5.43903
20
-3.66981
11
5.43909
21
-3.66962
0
LINE
8
BLACK
6
CONTINUOUS
10
5.43909
20
-3.66962
11
5.43918
21
-3.66945
0
LINE
8
BLACK
6
CONTINUOUS
10
5.43918
20
-3.66945
11
5.4393
21
-3.6693
0
LINE
8
BLACK
6
CONTINUOUS
10
5.4393
20
-3.6693
11
5.43945
21
-3.66918
0
LINE
8
BLACK
6
CONTINUOUS
10
5.43945
20
-3.66918
11
5.43962
21
-3.66909
0
LINE
8
BLACK
6
CONTINUOUS
10
5.43962
20
-3.66909
11
5.43981
21
-3.66903
0
LINE
8
BLACK
6
CONTINUOUS
10
5.43981
20
-3.66903
11
5.43995
21
-3.66902
0
LINE
8
BLACK
6
CONTINUOUS
10
5.43995
20
-3.66902
11
5.44
21
-3.66901
0
LINE
8
BLACK
6
CONTINUOUS
10
5.44
20
-3.66901
11
5.44005
21
-3.66902
0
LINE
8
BLACK
6
CONTINUOUS
10
5.44005
20
-3.66902
11
5.79995
21
-3.66902
0
LINE
8
BLACK
6
CONTINUOUS
10
5.79995
20
-3.66902
11
5.8
21
-3.66901
0
LINE
8
BLACK
6
CONTINUOUS
10
5.8
20
-3.66901
11
5.80005
21
-3.66902
0
LINE
8
BLACK
6
CONTINUOUS
10
5.44098
20
-3.67098
11
5.44098
21
-4.19902
0
LINE
8
BLACK
6
CONTINUOUS
10
5.44098
20
-4.19902
11
5.79902
21
-4.19902
0
LINE
8
BLACK
6
CONTINUOUS
10
5.79902
20
-4.19902
11
5.79902
21
-3.67098
0
LINE
8
BLACK
6
CONTINUOUS
10
5.79902
20
-3.67098
11
5.44098
21
-3.67098
  0
ENDSEC
  0
EOF
